<svg id="Layer_1" data-name="Layer 1" xmlns="http://www.w3.org/2000/svg" viewBox="0 0 1500 1500"><defs><style>.cls-1{fill-rule:evenodd;}</style></defs><path d="M483.31,755.23q-1,1.69-1,14,0,9.64.48,12.06,1.69,6.5,8.68,10.12-9.4,5.55-9.4,16.15v3.86a12.31,12.31,0,0,1,.24,2.41v1.68q0,11.82.48,13.74,2.18,6.28,12.06,6.27h2.65a17.61,17.61,0,0,0,2.89-.24v20.49H421.85V835.26q13,.72,13-6V770.9l-27.72,84.85H376.77l-26.27-88v61q0,7.23,13,6.51v20.49h-56.4V835.26a20.83,20.83,0,0,0,2.89.24h2.65c6.27,0,10.12-2.08,11.57-6.27q.48-1.92.48-13.74,0-5.29-.12-8.43a32.31,32.31,0,0,0-.36-4.34,17.67,17.67,0,0,0-8.68-11.33,17.43,17.43,0,0,0,8.92-10.85q.24-.72.24-11.57,0-11.33-.48-13.25-1.94-5.07-11.57-5.07H310a22.5,22.5,0,0,0-2.89.24V730.4h81.71q8.19,39.78,13,65.81a3.93,3.93,0,0,1,.48.6,5.34,5.34,0,0,0,.72.85q2.65-10.12,6.87-26.76t9.77-40h80.75v20Q486.45,749.93,483.31,755.23Z"/><path d="M627.7,779.82V763q0-5.07-8.43-8.68-6.51-2.65-10.37-2.65H592.51v30.13h28.2v24.1h-28.2v29.41h24.1q13,0,13-21.45v-2.17c0-1.29-.08-2.89-.24-4.82h35v48.93H516.82V835.26h17.11q6,0,7.24-9.16V815.49q0-12.29-.25-13-1.44-7.71-9.16-10.61,7.25-3.14,8.92-9.64.48-2.4.49-11.81,0-12.78-2.42-15.19-4.1-4.82-21.93-4.34V730.4H665.07v49.42Z"/><path d="M828.5,754.75q-1.46,1.93-1.45,15,0,9.39.48,11.81,1.68,6.51,8.68,10.12-1.94.24-5.79,4.58-3.13,3.85-3.61,6.27v53.27H768.23l-37.84-86.54V828q0,6,8.92,7a36.35,36.35,0,0,0,9.4.24v20.49h-64.6V835.26a17.52,17.52,0,0,0,2.89.24h2.65q9.89,0,12.05-6.27.48-1.92.48-13.74,0-5.54-.12-8.79a33.35,33.35,0,0,0-.36-4.46q-1.68-8.19-9.4-10.37,8-3.86,9.64-10.6c.16-.49.24-4.58.24-12.3q0-13.5-1-14.7-2.65-4.1-17.11-3.38V730.4h80.75l35.43,80.27v-53q0-8.19-15.43-6.75V730.4h62.68v20.49Q831.63,750.67,828.5,754.75Z"/><path d="M971.2,780.54V759.09a9.49,9.49,0,0,0-2.53-4.82q-2.29-2.65-4.22-2.65h-5.79v29.65a4.67,4.67,0,0,0,1.21,2.53,25,25,0,0,0,2.89,3.13c1.12,1.05,2.21,2,3.25,2.89a21.05,21.05,0,0,0,2.78,2q-7.72,1.46-9.65,10.85-.24.72-.24,12.77,0,12.54.73,14.23,2.4,5.78,14.22,5.78h3.37a29.42,29.42,0,0,0,3.62-.24v20.49H890V835.26q12.06,0,12.78-.24,8.67-1,9.4-6.51v-13q0-11.57-.48-14-1.45-6-8.68-9.64,9.15-7.71,9.16-10.85V752.1c-.32-.32-1.45-.48-3.38-.48q-8.91,0-8.91,5.78v23.38H863.21V730.4H1007.6v50.14Z"/><path d="M1186.94,803.54q-7.49,30.09-27.72,43.8-18.57,12-51.11,12c1.29,0,0-.12-3.73-.37s-10.09-.68-18.93-1.32q-18.56-1-34.71-15.64-15.67-14.67-18.08-33.2a26.71,26.71,0,0,0-4.58-11.31,11.64,11.64,0,0,0-2.41-2.17,54.84,54.84,0,0,0-5.3-3.37q8.19-5,11.81-17.08,4.82-16.6,6.51-19,18.07-29.11,68.22-29.11,63.39,0,76.89,50.53.72,3.36,4.34,7.94a33.3,33.3,0,0,0,6.27,6.74A76,76,0,0,0,1186.94,803.54Zm-65.09-11.67q9.17-6.51,9.16-19,0-21.93-22.9-21.94-22.41,0-22.42,22.66,0,6.51,1,8.68,1.68,4.34,8.44,9.64-4.83,1.93-7.48,8.08a30,30,0,0,0-2.65,11.93q0,11.08,6.51,18t17.6,6.87q22.65,0,22.66-24.11Q1131.74,796,1121.85,791.87Z"/><path class="cls-1" d="M750.76,469.16c-15-11.92-66.12-3.73-64.49,7q-22.56-3.67-41.14.74C535.24,502,521,370.6,400.15,397c-6.38,1.39-7.39,4.85-3.11,4.59,110.66-6.78,126.72,120.52,231,114.54,14.65-.84,44.82-2.65,52.09-4.15s15.69,79.5,21.79,91.86c4.63,9.53,10.85,16.34,13.91,48.25q-6.51,17.63-.15,28.11-1.51,13.32,16.58,10.95c4.43,12,32.56,12,37,0q18.11,2.36,16.58-10.95,6.36-10.49-.15-28.11c3.06-31.91,9.28-38.72,13.91-48.25,6.11-12.36,14.52-93.35,21.79-91.86s37.44,3.31,52.09,4.15c104.28,6,120.34-121.32,231-114.54,4.28.26,3.27-3.2-3.11-4.59-120.83-26.43-135.1,104.94-245,79.83q-18.58-4.41-41.14-.74c1.62-10.69-49.47-18.88-64.49-7"/><path d="M604.31,970.21a10.53,10.53,0,0,1,2.57,3.44,10.1,10.1,0,0,1,1,4.39v6.56a10.23,10.23,0,0,1-.83,4.11,10.93,10.93,0,0,1-2.28,3.35,10.69,10.69,0,0,1-3.34,2.27,10.15,10.15,0,0,1-4.12.84l-13.38-.07a9.56,9.56,0,0,0,1.07-1.67,10.77,10.77,0,0,0,.73-1.77,6.91,6.91,0,0,0,.34-2.18V974.42a1.89,1.89,0,0,0-.44-1,14.58,14.58,0,0,0-1-1.2,19.92,19.92,0,0,0-1.34-1.48,6.21,6.21,0,0,0,2.08-2.14,4.41,4.41,0,0,0,.67-1.94V951.07a4.89,4.89,0,0,0-.34-1.81,14,14,0,0,0-.73-1.6c-.32-.49-.67-1-1.07-1.48h12.91a10.12,10.12,0,0,1,4.12.84,11.32,11.32,0,0,1,3.34,2.24,10.45,10.45,0,0,1,2.28,3.32,10.07,10.07,0,0,1,.83,4.11v6a10.21,10.21,0,0,1-.83,4.09A11.66,11.66,0,0,1,604.31,970.21Zm-11.51-3.88h4a3.46,3.46,0,0,0,2.58-1.07,3.56,3.56,0,0,0,1-2.55v-6a3.42,3.42,0,0,0-1-2.51,3.51,3.51,0,0,0-2.58-1h-4ZM600.89,978a3.42,3.42,0,0,0-1-2.51,3.52,3.52,0,0,0-2.58-1H592.8v13.72h4.48a3.54,3.54,0,0,0,3.61-3.61Z"/><path d="M633.55,995.17a12.17,12.17,0,0,0,1.14-1.47,8.8,8.8,0,0,0,.7-1.54,3.81,3.81,0,0,0,.17-1.81c-.09-.62-.18-1.26-.27-1.91s-.18-1.21-.27-1.7l-.27-1.74h-8.9l-.73,5.49a3.17,3.17,0,0,0,.16,1.63,9.19,9.19,0,0,0,.71,1.51,11.46,11.46,0,0,0,1.07,1.54H616.15a7.69,7.69,0,0,0,.94-1.14c.22-.35.43-.72.63-1.1a5,5,0,0,0,.44-1.11l2.21-16a3.24,3.24,0,0,0-.27-1.81,14.16,14.16,0,0,0-.87-1.6c-.4-.54-.83-1.07-1.27-1.61a9.67,9.67,0,0,0,2.17-1.47,5.49,5.49,0,0,0,1.11-1.41,3.8,3.8,0,0,0,.46-1.47q.94-6.88,1.58-11.17c.42-2.86.68-4.4.77-4.62a2.6,2.6,0,0,0-.2-1.51,13.88,13.88,0,0,0-.74-1.44c-.31-.49-.67-1-1.07-1.54h16.59a16.15,16.15,0,0,0-1.13,1.54,10.71,10.71,0,0,0-.71,1.44,2.35,2.35,0,0,0-.16,1.37l2.34,16a8.33,8.33,0,0,0,.23.87,4.84,4.84,0,0,0,.57,1.14,6,6,0,0,0,1.07,1.17,7.08,7.08,0,0,0,1.74,1,12.86,12.86,0,0,0-1.27,1.48,8,8,0,0,0-.83,1.54,3.46,3.46,0,0,0-.24,1.87q.4,2.61.77,5.32c.25,1.81.47,3.47.67,5s.37,2.78.5,3.79.22,1.57.27,1.7a5.22,5.22,0,0,0,.47,1.27,12.17,12.17,0,0,0,.67,1.21,8.6,8.6,0,0,0,.93,1.27Zm.27-16.93-3.48-24.56-3.48,24.56Z"/><path d="M667.14,995.24a2.76,2.76,0,0,0,.44-.34,3.6,3.6,0,0,0,.6-.73,4.38,4.38,0,0,0,.5-1.24,4.06,4.06,0,0,0,0-1.84l-3.81-12h-3.62v12a3.19,3.19,0,0,0,.31,1.3,10.4,10.4,0,0,0,.7,1.37,14.12,14.12,0,0,0,1.07,1.48H652.42a15.59,15.59,0,0,0,1-1.41,11.93,11.93,0,0,0,.74-1.24,2.49,2.49,0,0,0,.34-1.1V974.42a3.22,3.22,0,0,0-.47-1.17,7,7,0,0,0-.94-1.17c-.4-.44-.85-.89-1.34-1.34a7.77,7.77,0,0,0,1.54-1.43,6.69,6.69,0,0,0,.8-1.31,4.71,4.71,0,0,0,.34-1c0-.27.07-.45.07-.54V950.73a3.79,3.79,0,0,0-.34-1.5,12.16,12.16,0,0,0-.74-1.44c-.31-.49-.64-1-1-1.54h13.45a10.12,10.12,0,0,1,4.12.84,10.81,10.81,0,0,1,5.62,5.62,10.07,10.07,0,0,1,.83,4.11V968.6a10.12,10.12,0,0,1-1.37,5.19,10.64,10.64,0,0,1-3.64,3.78q1.26,3.75,2.27,6.76l2.28,6.82a5.88,5.88,0,0,0,.9,1.68,15,15,0,0,0,1.1,1.27,11.15,11.15,0,0,0,1.34,1.14Zm-1.27-23a3.46,3.46,0,0,0,2.58-1.07,3.56,3.56,0,0,0,1-2.55V956.82a3.54,3.54,0,0,0-3.61-3.61h-4.62v19Z"/><path d="M707.76,970.21a10.7,10.7,0,0,1,2.58,3.44,10.1,10.1,0,0,1,1,4.39v6.56a10.07,10.07,0,0,1-.84,4.11,10.72,10.72,0,0,1-5.62,5.62,10.07,10.07,0,0,1-4.11.84l-13.39-.07a9,9,0,0,0,1.07-1.67,9.93,9.93,0,0,0,.74-1.77,7.2,7.2,0,0,0,.33-2.18V974.42a1.86,1.86,0,0,0-.43-1,14.58,14.58,0,0,0-1-1.2,19.92,19.92,0,0,0-1.34-1.48,6.09,6.09,0,0,0,2.07-2.14,4.28,4.28,0,0,0,.67-1.94V951.07a5.09,5.09,0,0,0-.33-1.81,12.46,12.46,0,0,0-.74-1.6,16.58,16.58,0,0,0-1.07-1.48h12.92a10.07,10.07,0,0,1,4.11.84,11.24,11.24,0,0,1,3.35,2.24,10.26,10.26,0,0,1,2.27,3.32,10.07,10.07,0,0,1,.84,4.11v6a10.22,10.22,0,0,1-.84,4.09A11.28,11.28,0,0,1,707.76,970.21Zm-11.51-3.88h4a3.45,3.45,0,0,0,2.57-1.07,3.53,3.53,0,0,0,1-2.55v-6a3.39,3.39,0,0,0-1-2.51,3.5,3.5,0,0,0-2.57-1h-4Zm8.1,11.71a3.43,3.43,0,0,0-1-2.51,3.5,3.5,0,0,0-2.57-1h-4.49v13.72h4.49a3.46,3.46,0,0,0,2.57-1,3.5,3.5,0,0,0,1-2.57Z"/><path d="M740.82,988a12.79,12.79,0,0,0,1.54-.91,12.11,12.11,0,0,0,1.41-1.2l-1.88,9.37H721.08c.36-.54.69-1.07,1-1.61a13.39,13.39,0,0,0,.74-1.57,4.48,4.48,0,0,0,.33-1.64v-16a2.9,2.9,0,0,0-.47-1.17,6.93,6.93,0,0,0-.93-1.17c-.4-.44-.85-.89-1.34-1.34a7.77,7.77,0,0,0,1.54-1.43,6.69,6.69,0,0,0,.8-1.31,4.71,4.71,0,0,0,.34-1,4.64,4.64,0,0,0,.06-.54V950.33a3.43,3.43,0,0,0-.33-1.4,9,9,0,0,0-.74-1.34,15.59,15.59,0,0,0-1-1.41h20.68l1.87,9.37c-.53-.44-1-.84-1.54-1.2a17.56,17.56,0,0,0-1.54-.87,5.53,5.53,0,0,0-1.74-.54h-8.9v15h6.56a3.43,3.43,0,0,0,1.41-.3,6.4,6.4,0,0,0,1.2-.7,8.78,8.78,0,0,0,1.14-1.07v10.91a6.83,6.83,0,0,0-.94-1,5.35,5.35,0,0,0-1.17-.73,3.67,3.67,0,0,0-1.64-.34h-6.56v13.79H739A4.85,4.85,0,0,0,740.82,988Z"/><path d="M767.05,995.24a2.76,2.76,0,0,0,.44-.34,3.6,3.6,0,0,0,.6-.73,4.38,4.38,0,0,0,.5-1.24,4.06,4.06,0,0,0,0-1.84l-3.81-12h-3.62v12a3.19,3.19,0,0,0,.31,1.3,10.4,10.4,0,0,0,.7,1.37,14.12,14.12,0,0,0,1.07,1.48H752.33a15.59,15.59,0,0,0,1-1.41,11.93,11.93,0,0,0,.74-1.24,2.49,2.49,0,0,0,.34-1.1V974.42a3.22,3.22,0,0,0-.47-1.17,7,7,0,0,0-.94-1.17c-.4-.44-.85-.89-1.34-1.34a7.77,7.77,0,0,0,1.54-1.43A6.69,6.69,0,0,0,754,968a4.71,4.71,0,0,0,.34-1c0-.27.07-.45.07-.54V950.73a3.79,3.79,0,0,0-.34-1.5,12.16,12.16,0,0,0-.74-1.44c-.31-.49-.64-1-1-1.54h13.45a10.12,10.12,0,0,1,4.12.84,10.81,10.81,0,0,1,5.62,5.62,10.07,10.07,0,0,1,.83,4.11V968.6a10.12,10.12,0,0,1-1.37,5.19,10.64,10.64,0,0,1-3.64,3.78q1.26,3.75,2.27,6.76l2.28,6.82a5.88,5.88,0,0,0,.9,1.68,15,15,0,0,0,1.1,1.27,11.15,11.15,0,0,0,1.34,1.14Zm-1.27-23a3.46,3.46,0,0,0,2.58-1.07,3.56,3.56,0,0,0,1-2.55V956.82a3.54,3.54,0,0,0-3.61-3.61h-4.62v19Z"/><path d="M804.66,970.48a28.64,28.64,0,0,1,2.18,2.44,19.15,19.15,0,0,1,1.84,2.81A15.17,15.17,0,0,1,810,979a16.19,16.19,0,0,1,.47,4q0,12.38-11,12.38a18.1,18.1,0,0,1-4.92-.6,7.92,7.92,0,0,1-3.51-2.05A9,9,0,0,1,788.9,989a21.15,21.15,0,0,1-.7-5.92v-1.34a3,3,0,0,0-.33-1.34,7.66,7.66,0,0,0-.74-1.2,6.87,6.87,0,0,0-1.07-1.21h11.11a9.73,9.73,0,0,0-1.07,1.27,7.49,7.49,0,0,0-.74,1.21,2.86,2.86,0,0,0-.33,1.27v1.81a5.37,5.37,0,0,0,1.2,3.81,4,4,0,0,0,3,1.27,4.11,4.11,0,0,0,3-1.27,5.17,5.17,0,0,0,1.27-3.81,8.16,8.16,0,0,0-1.2-4.45,21.11,21.11,0,0,0-2.94-3.65,2.84,2.84,0,0,0-1.24-.44,13.19,13.19,0,0,0-1.51-.1c-.58,0-1.18,0-1.8.07a6,6,0,0,0-.17-3.25,8.22,8.22,0,0,0-.77-1.43,25.2,25.2,0,0,1-3.82-5.12,14.07,14.07,0,0,1-1.6-7q0-6.48,2.74-9.43t8.3-3q5.49,0,8.26,3t2.78,9.43a3.55,3.55,0,0,0,.34,1.58,6.89,6.89,0,0,0,.73,1.23,5.08,5.08,0,0,0,1.07,1.14h-11a7.18,7.18,0,0,0,1.07-1.2,8.28,8.28,0,0,0,.74-1.21,3,3,0,0,0,.33-1.34v-.67a5.57,5.57,0,0,0-1.17-3.88,3.82,3.82,0,0,0-2.91-1.27,3.91,3.91,0,0,0-3,1.27,5.57,5.57,0,0,0-1.17,3.88,8.71,8.71,0,0,0,.9,4,15.66,15.66,0,0,0,2.31,3.31,4.92,4.92,0,0,0,1.27.67,6.31,6.31,0,0,0,1.64.37,9.9,9.9,0,0,0,2.31-.1,14.57,14.57,0,0,0,0,1.87c0,.49.11,1,.2,1.51A2.54,2.54,0,0,0,804.66,970.48Z"/><path d="M846.32,992.56A6.87,6.87,0,0,0,847,994a6.05,6.05,0,0,0,1.07,1.27H837.18a10.91,10.91,0,0,0,1-1.34,8.94,8.94,0,0,0,.73-1.34,3.75,3.75,0,0,0,.34-1.61V974.69h-9.77v16.13a5,5,0,0,0,.3,1.74,6.87,6.87,0,0,0,.7,1.41,6.05,6.05,0,0,0,1.07,1.27H820.65a10,10,0,0,0,1-1.34,8.94,8.94,0,0,0,.73-1.34,3.75,3.75,0,0,0,.34-1.61V974.42a3,3,0,0,0-.47-1.17,7,7,0,0,0-.94-1.17c-.4-.44-.84-.89-1.33-1.34a8.05,8.05,0,0,0,1.57-1.47,6.29,6.29,0,0,0,.83-1.34,3.46,3.46,0,0,0,.31-1c0-.27,0-.42,0-.47V950.33a3.16,3.16,0,0,0-.34-1.43,9.65,9.65,0,0,0-.73-1.31,10,10,0,0,0-1-1.34h10.91a8.78,8.78,0,0,0-1.07,1.14,5.89,5.89,0,0,0-.7,1.24,4.14,4.14,0,0,0-.3,1.64v17.66h9.77v-17.6a3.16,3.16,0,0,0-.34-1.43,9.65,9.65,0,0,0-.73-1.31,10.91,10.91,0,0,0-1-1.34h10.91a8.78,8.78,0,0,0-1.07,1.14,5.89,5.89,0,0,0-.7,1.24,4.14,4.14,0,0,0-.3,1.64v16.12c0,.05,0,.2,0,.47a3.64,3.64,0,0,0,.27,1,5.31,5.31,0,0,0,.8,1.33,8.25,8.25,0,0,0,1.64,1.54c-.49.45-.94.9-1.34,1.34a7.79,7.79,0,0,0-1,1.21,2.23,2.23,0,0,0-.43,1.2v16.33A5,5,0,0,0,846.32,992.56Z"/><path d="M885.57,970.74a18.8,18.8,0,0,0-1.34,1.34,7,7,0,0,0-.94,1.17,3,3,0,0,0-.47,1.17V984.8a10.23,10.23,0,0,1-.83,4.11,11.08,11.08,0,0,1-5.69,5.69,10.12,10.12,0,0,1-4.12.84l-2,.06a9.78,9.78,0,0,1-4.11-.87,11.6,11.6,0,0,1-3.38-2.31,10.44,10.44,0,0,1-3.15-7.52V974.42a3.92,3.92,0,0,0-.53-1.17,7,7,0,0,0-.94-1.17c-.4-.44-.82-.89-1.27-1.34a7.77,7.77,0,0,0,1.54-1.43,7.2,7.2,0,0,0,.8-1.28,3.81,3.81,0,0,0,.34-1,5.4,5.4,0,0,0,.06-.57v-10.1a10.09,10.09,0,0,1,.84-4.12,11.08,11.08,0,0,1,5.69-5.69,10.23,10.23,0,0,1,4.11-.83h2.08a10.23,10.23,0,0,1,4.11.83,10.56,10.56,0,0,1,3.35,2.31,11.31,11.31,0,0,1,2.28,3.38,10.25,10.25,0,0,1,.83,4.12v10.1a3.5,3.5,0,0,0,.07.54,4.1,4.1,0,0,0,.33,1,6.78,6.78,0,0,0,.81,1.31A7.5,7.5,0,0,0,885.57,970.74Zm-13.41,17.74a3.21,3.21,0,0,0,2.59-1.31,4.34,4.34,0,0,0,1-2.77V974.29a3.66,3.66,0,0,0-.54-1.14,7.14,7.14,0,0,0-.94-1.13,17,17,0,0,0-1.27-1.28,8.33,8.33,0,0,0,1.57-1.43,6.17,6.17,0,0,0,.84-1.31,4.71,4.71,0,0,0,.34-1,4.64,4.64,0,0,0,.06-.54v-9.7a4.3,4.3,0,0,0-1.08-2.78,3.22,3.22,0,0,0-2.56-1.3h-2.09a3.18,3.18,0,0,0-2.59,1.3,4.37,4.37,0,0,0-1,2.78v9.7c0,.09,0,.27.07.54a4.2,4.2,0,0,0,.34,1,6.24,6.24,0,0,0,.8,1.31,7.77,7.77,0,0,0,1.54,1.43c-.45.45-.87.9-1.27,1.34a8.37,8.37,0,0,0-1,1.17,2.76,2.76,0,0,0-.51,1.17v10a4.51,4.51,0,0,0,1,2.81,3.16,3.16,0,0,0,2.59,1.33Z"/><path d="M907.65,946.25a10.07,10.07,0,0,1,4.11.84,10.72,10.72,0,0,1,5.62,5.62,10.07,10.07,0,0,1,.84,4.11V968.6a10.12,10.12,0,0,1-.84,4.12,10.57,10.57,0,0,1-2.27,3.34,10.81,10.81,0,0,1-3.35,2.28,10.07,10.07,0,0,1-4.11.84l-4.62-.07v12a3.33,3.33,0,0,0,.3,1.3,11.77,11.77,0,0,0,.7,1.37,14.25,14.25,0,0,0,1.08,1.48H894.2c.35-.45.69-.92,1-1.41a14,14,0,0,0,.74-1.24,2.46,2.46,0,0,0,.33-1.1V974.42a2.9,2.9,0,0,0-.47-1.17,6.93,6.93,0,0,0-.93-1.17c-.41-.44-.85-.89-1.34-1.34a7.77,7.77,0,0,0,1.54-1.43,7.21,7.21,0,0,0,.8-1.31,4.1,4.1,0,0,0,.33-1,3.5,3.5,0,0,0,.07-.54V950.73a3.77,3.77,0,0,0-.33-1.5,13.88,13.88,0,0,0-.74-1.44c-.31-.49-.65-1-1-1.54Zm3.61,10.57a3.46,3.46,0,0,0-1-2.57,3.5,3.5,0,0,0-2.57-1H903v19h4.62a3.45,3.45,0,0,0,2.57-1.07,3.53,3.53,0,0,0,1-2.55Z"/><rect x="796.62" y="684.58" width="397.79" height="12.56"/><rect x="796.62" y="673.63" width="397.79" height="5.02"/><rect x="306.63" y="682.07" width="397.79" height="15.07"/><rect x="306.63" y="673.63" width="397.79" height="5.02"/><rect x="305.59" y="886.65" width="888.82" height="12.56"/><rect x="305.59" y="905.14" width="888.82" height="5.02"/><path d="M875.94,624v6.61h-21.6v-6.14l-.07-5.1a14.75,14.75,0,0,1,1.08-5.85A20.53,20.53,0,0,1,858,609a28.51,28.51,0,0,1,3.5-3.69c1.27-1.11,2.43-2.23,3.5-3.36a19.32,19.32,0,0,0,2.69-3.57,8.38,8.38,0,0,0,1.08-4.28,5.25,5.25,0,0,0-.95-3.53,3.5,3.5,0,0,0-2.72-1,3.58,3.58,0,0,0-2.75,1,5.06,5.06,0,0,0-1,3.51V595a3.47,3.47,0,0,0,.26,1.33,8.71,8.71,0,0,0,.59,1.14,4.61,4.61,0,0,0,.85,1.17h-8.64v-3.87q0-6.29,2.72-9.16c1.81-1.92,4.52-2.88,8.15-2.88s6.28.91,8.12,2.75,2.75,4.84,2.75,9a14.72,14.72,0,0,1-1.08,5.83,19.44,19.44,0,0,1-2.66,4.45,26.24,26.24,0,0,1-3.47,3.6q-1.89,1.64-3.47,3.27a19.48,19.48,0,0,0-2.65,3.47,8.28,8.28,0,0,0-1.08,4.26V624h7.53v-3.8a6,6,0,0,0-.36-2.13,14,14,0,0,0-.75-1.67,7,7,0,0,0-1.05-1.37h8.77Z"/><path d="M900.43,582.17a10,10,0,0,1,4,.81,10.13,10.13,0,0,1,3.24,2.23,11,11,0,0,1,2.2,3.27,10,10,0,0,1,.81,4v27.82a10,10,0,0,1-.81,4,10.35,10.35,0,0,1-2.23,3.24,11,11,0,0,1-3.27,2.19,9.88,9.88,0,0,1-4,.82l-2,.06a10,10,0,0,1-4-.81,10.65,10.65,0,0,1-5.5-5.5,10,10,0,0,1-.82-4V592.51a10,10,0,0,1,.82-4,10.65,10.65,0,0,1,5.5-5.5,10,10,0,0,1,4-.81ZM904,592.5a3.57,3.57,0,0,0-3.53-3.53h-2a3.34,3.34,0,0,0-2.52,1,3.43,3.43,0,0,0-1,2.48v27.77a3.41,3.41,0,0,0,1,2.48,3.34,3.34,0,0,0,2.52,1l2-.07a3.4,3.4,0,0,0,2.52-1,3.31,3.31,0,0,0,1-2.45Z"/><path d="M942.91,624v6.61h-21.6v-6.14l-.07-5.1a14.57,14.57,0,0,1,1.09-5.85A20.12,20.12,0,0,1,925,609a28.51,28.51,0,0,1,3.5-3.69c1.27-1.11,2.43-2.23,3.5-3.36a19.32,19.32,0,0,0,2.69-3.57,8.38,8.38,0,0,0,1.08-4.28,5.25,5.25,0,0,0-.95-3.53,3.5,3.5,0,0,0-2.72-1,3.58,3.58,0,0,0-2.75,1,5.06,5.06,0,0,0-1,3.51V595a3.47,3.47,0,0,0,.26,1.33,8.71,8.71,0,0,0,.59,1.14,4.61,4.61,0,0,0,.85,1.17h-8.64v-3.87q0-6.29,2.72-9.16t8.15-2.88c3.58,0,6.28.91,8.12,2.75s2.75,4.84,2.75,9a14.55,14.55,0,0,1-1.08,5.83,19.44,19.44,0,0,1-2.66,4.45,26.24,26.24,0,0,1-3.47,3.6q-1.89,1.64-3.47,3.27a19.48,19.48,0,0,0-2.65,3.47,8.28,8.28,0,0,0-1.08,4.26V624h7.53v-3.8a6,6,0,0,0-.36-2.13,14,14,0,0,0-.75-1.67,7,7,0,0,0-1.05-1.37h8.77Z"/><path d="M964.06,589.56v36.79a5,5,0,0,0,.29,1.71,7,7,0,0,0,.69,1.37,5.31,5.31,0,0,0,1.05,1.24h-11a10.27,10.27,0,0,0,1-1.3,10.13,10.13,0,0,0,.72-1.31,3.76,3.76,0,0,0,.33-1.58V594.73a3.31,3.31,0,0,0-.43-1.63,5.39,5.39,0,0,0-1-1.31,10.83,10.83,0,0,0-1.37-1.18l9.69-7.86Z"/><rect x="985.17" y="603.77" width="106.31" height="5.02"/><rect x="1005.66" y="595.71" width="65.31" height="4.02"/><rect x="1005.66" y="613.84" width="65.31" height="4.02"/><path d="M554.92,623.91a12.13,12.13,0,0,0,1.5-.88,12.68,12.68,0,0,0,1.38-1.18L556,631H535.61c.35-.52.67-1,1-1.57a14.63,14.63,0,0,0,.72-1.54,4.23,4.23,0,0,0,.32-1.6V610.65a2.76,2.76,0,0,0-.45-1.14,6.36,6.36,0,0,0-.92-1.15c-.39-.43-.83-.87-1.31-1.31a7.21,7.21,0,0,0,1.51-1.41,6.06,6.06,0,0,0,.78-1.27,4,4,0,0,0,.33-1,4.33,4.33,0,0,0,.06-.53V587.09a3.29,3.29,0,0,0-.32-1.38,9.51,9.51,0,0,0-.72-1.31,15.36,15.36,0,0,0-1-1.37h20.23l1.83,9.16c-.53-.43-1-.83-1.51-1.18s-1-.59-1.5-.85a5.67,5.67,0,0,0-1.71-.52h-8.7V604.3h6.41A3.29,3.29,0,0,0,552,604a6.77,6.77,0,0,0,1.18-.69,7.79,7.79,0,0,0,1.11-1.05v10.67a7,7,0,0,0-.92-1,5.08,5.08,0,0,0-1.14-.72,3.7,3.7,0,0,0-1.61-.33h-6.41V624.4h8.9A4.69,4.69,0,0,0,554.92,623.91Z"/><path d="M584.64,606.79a29,29,0,0,1,2.13,2.39,19.15,19.15,0,0,1,1.8,2.75,15,15,0,0,1,1.24,3.24,15.47,15.47,0,0,1,.46,3.93q0,12.1-10.74,12.11a17.68,17.68,0,0,1-4.81-.59,7.65,7.65,0,0,1-3.44-2,8.83,8.83,0,0,1-2.06-3.73,20.67,20.67,0,0,1-.69-5.79v-1.31a3,3,0,0,0-.32-1.31,7.87,7.87,0,0,0-.72-1.18,7.38,7.38,0,0,0-1-1.18h10.87a8.7,8.7,0,0,0-1,1.25,8.29,8.29,0,0,0-.72,1.17,2.81,2.81,0,0,0-.33,1.25v1.77a5.22,5.22,0,0,0,1.18,3.73,3.9,3.9,0,0,0,3,1.24,4,4,0,0,0,2.94-1.24,5.06,5.06,0,0,0,1.25-3.73,8.06,8.06,0,0,0-1.18-4.36,21.47,21.47,0,0,0-2.88-3.57,2.83,2.83,0,0,0-1.21-.42,10.82,10.82,0,0,0-1.48-.1c-.57,0-1.15,0-1.77.07a5.77,5.77,0,0,0-.16-3.18,8.57,8.57,0,0,0-.75-1.41,24,24,0,0,1-3.73-5,13.74,13.74,0,0,1-1.57-6.85q0-6.35,2.68-9.23t8.12-2.88q5.37,0,8.08,2.88t2.72,9.23a3.51,3.51,0,0,0,.33,1.54,6.67,6.67,0,0,0,.72,1.21,5.07,5.07,0,0,0,1,1.12h-10.8a7,7,0,0,0,1-1.18,7.87,7.87,0,0,0,.72-1.18,2.86,2.86,0,0,0,.33-1.31v-.65a5.46,5.46,0,0,0-1.15-3.8,3.7,3.7,0,0,0-2.85-1.24,3.78,3.78,0,0,0-2.91,1.24,5.46,5.46,0,0,0-1.14,3.8,8.41,8.41,0,0,0,.88,3.89,14.43,14.43,0,0,0,2.26,3.24,5,5,0,0,0,1.24.66,6.41,6.41,0,0,0,1.61.36,9.41,9.41,0,0,0,2.25-.1,14,14,0,0,0,0,1.83c0,.48.11,1,.2,1.47A2.41,2.41,0,0,0,584.64,606.79Z"/><path d="M626.47,593.11a16.48,16.48,0,0,0-1.9-1.77,14,14,0,0,0-1.8-1.28,3.47,3.47,0,0,0-1.73-.55h-4.78v13.35a4.33,4.33,0,0,0,.06.53,5.39,5.39,0,0,0,.3,1,4.74,4.74,0,0,0,.78,1.27,8.32,8.32,0,0,0,1.54,1.41c-.48.44-.91.88-1.31,1.31a5.89,5.89,0,0,0-.91,1.18,3,3,0,0,0-.46,1.18v16.76a2.6,2.6,0,0,0,.33,1.21,6.89,6.89,0,0,0,.72,1.14,5.38,5.38,0,0,0,1.11,1.18H607.35a10.42,10.42,0,0,0,1.77-2.39,2.67,2.67,0,0,0,.33-1.27V610.72a3.11,3.11,0,0,0-.46-1.18,6.28,6.28,0,0,0-.91-1.18c-.4-.43-.83-.87-1.31-1.31a7.66,7.66,0,0,0,1.53-1.44,6.24,6.24,0,0,0,.82-1.31,3.29,3.29,0,0,0,.3-1c0-.26,0-.41,0-.46V589.51h-4.52a3.47,3.47,0,0,0-1.73.55,10.7,10.7,0,0,0-1.74,1.28,18.31,18.31,0,0,0-1.9,1.77l1.84-10h23.24Z"/><path d="M661.1,607.05c-.48.44-.91.88-1.31,1.31a6.31,6.31,0,0,0-.91,1.15,2.66,2.66,0,0,0-.46,1.14V620.8a9.88,9.88,0,0,1-.82,4,10.3,10.3,0,0,1-5.43,5.43,9.88,9.88,0,0,1-4,.82H635c.35-.57.68-1.16,1-1.77a15,15,0,0,0,.72-1.67,5.12,5.12,0,0,0,.33-1.8V610.65a2.79,2.79,0,0,0-.46-1.14,6.77,6.77,0,0,0-.91-1.15c-.4-.43-.83-.87-1.31-1.31a7.66,7.66,0,0,0,1.53-1.44,6.24,6.24,0,0,0,.82-1.31,3,3,0,0,0,.3-1c0-.26,0-.41,0-.46V587.94a4.07,4.07,0,0,0-.33-1.38A12.63,12.63,0,0,0,636,585l-1-1.83h13.09a10.2,10.2,0,0,1,7.34,3,11.16,11.16,0,0,1,2.19,3.27,9.88,9.88,0,0,1,.82,4v9.36c0,.09,0,.25,0,.49a3,3,0,0,0,.3.95,6.16,6.16,0,0,0,.81,1.31A7.74,7.74,0,0,0,661.1,607.05Zm-13,17.22a3.45,3.45,0,0,0,3.47-3.47V610.65a2.41,2.41,0,0,0-.56-1.14,11.37,11.37,0,0,0-1-1.15c-.44-.43-.92-.87-1.44-1.31a9.61,9.61,0,0,0,1.6-1.44,6.35,6.35,0,0,0,.92-1.31,5,5,0,0,0,.39-1,2.73,2.73,0,0,0,.1-.46V593.5a3.45,3.45,0,0,0-1-2.52,3.35,3.35,0,0,0-2.46-1h-4.52v12.9a8.56,8.56,0,0,0,.49,1.44,7.21,7.21,0,0,0,2.52,2.75c-.52.44-1,.88-1.44,1.31a12.76,12.76,0,0,0-1,1.15,2.41,2.41,0,0,0-.56,1.14v13.62Z"/><rect x="410.04" y="603.77" width="106.31" height="5.02"/><rect x="430.54" y="595.71" width="65.31" height="4.02"/><rect x="430.54" y="613.84" width="65.31" height="4.02"/><polygon points="750.76 1093.8 755.06 1107.06 769 1107.06 757.73 1115.25 762.03 1128.5 750.76 1120.31 739.48 1128.5 743.79 1115.25 732.51 1107.06 746.45 1107.06 750.76 1093.8"/><polygon points="793.39 1090.19 799.93 1102.49 813.66 1100.07 803.98 1110.1 810.52 1122.4 798 1116.29 788.31 1126.32 790.25 1112.52 777.73 1106.41 791.45 1103.99 793.39 1090.19"/><polygon points="834.75 1079.22 843.33 1090.21 856.43 1085.44 848.64 1096.99 857.22 1107.98 843.82 1104.13 836.02 1115.69 835.54 1101.76 822.14 1097.92 835.24 1093.15 834.75 1079.22"/><polygon points="873.58 1061.25 883.94 1070.57 896.01 1063.6 890.34 1076.34 900.7 1085.66 886.84 1084.2 881.17 1096.94 878.27 1083.3 864.41 1081.85 876.48 1074.88 873.58 1061.25"/><polygon points="908.7 1036.8 920.51 1044.18 931.19 1035.23 927.82 1048.75 939.64 1056.13 925.74 1057.11 922.36 1070.63 917.14 1057.71 903.24 1058.68 913.92 1049.72 908.7 1036.8"/><polygon points="939.03 1006.63 951.96 1011.85 960.91 1001.17 959.94 1015.07 972.86 1020.29 959.34 1023.66 958.37 1037.57 950.98 1025.75 937.46 1029.12 946.42 1018.44 939.03 1006.63"/><polygon points="963.67 971.64 977.3 974.54 984.27 962.47 985.73 976.33 999.36 979.23 986.63 984.9 988.09 998.76 978.76 988.4 966.03 994.07 973 982 963.67 971.64"/><polygon points="981.86 932.91 995.79 933.4 1000.55 920.3 1004.39 933.7 1018.32 934.18 1006.77 941.98 1010.61 955.38 999.63 946.79 988.07 954.59 992.84 941.49 981.86 932.91"/><polygon points="708.12 1090.19 701.58 1102.49 687.85 1100.07 697.54 1110.1 690.99 1122.4 703.52 1116.29 713.2 1126.32 711.26 1112.52 723.79 1106.41 710.06 1103.99 708.12 1090.19"/><polygon points="666.76 1079.22 658.18 1090.21 645.09 1085.44 652.88 1096.99 644.3 1107.98 657.7 1104.13 665.49 1115.69 665.98 1101.76 679.37 1097.92 666.28 1093.15 666.76 1079.22"/><polygon points="627.93 1061.25 617.58 1070.57 605.51 1063.6 611.18 1076.34 600.82 1085.66 614.68 1084.2 620.35 1096.94 623.25 1083.3 637.11 1081.85 625.04 1074.88 627.93 1061.25"/><polygon points="592.82 1036.8 581 1044.18 570.32 1035.23 573.7 1048.75 561.88 1056.13 575.78 1057.11 579.15 1070.63 584.37 1057.71 598.27 1058.68 587.6 1049.72 592.82 1036.8"/><polygon points="562.48 1006.63 549.56 1011.85 540.6 1001.17 541.57 1015.07 528.65 1020.29 542.17 1023.66 543.15 1037.57 550.53 1025.75 564.05 1029.12 555.1 1018.44 562.48 1006.63"/><polygon points="537.85 971.64 524.21 974.54 517.24 962.47 515.79 976.33 502.15 979.23 514.89 984.9 513.43 998.76 522.76 988.4 535.49 994.07 528.52 982 537.85 971.64"/><polygon points="519.66 932.91 505.73 933.4 500.96 920.3 497.12 933.7 483.19 934.18 494.75 941.98 490.9 955.38 501.89 946.79 513.44 954.59 508.68 941.49 519.66 932.91"/><path d="M750.76,1087.07a239.29,239.29,0,0,1-141.67-46,241.76,241.76,0,0,1-86.56-117.16l3.74-1.28a237.26,237.26,0,0,0,449,0l3.73,1.28a241.22,241.22,0,0,1-228.22,163.15Z"/><path d="M750.76,1141.23A295.43,295.43,0,0,1,465.86,923.8l3.8-1c34.43,126.31,150,214.53,281.1,214.53s246.67-88.22,281.09-214.53l3.81,1a295,295,0,0,1-284.9,217.43Z"/><polygon class="cls-1" points="750.76 310.53 759.81 338.55 789.26 338.5 765.39 355.76 774.55 383.75 750.76 366.4 726.96 383.75 736.12 355.76 712.26 338.5 741.71 338.55 750.76 310.53"/><polygon class="cls-1" points="844.12 354.8 851.05 376.29 873.64 376.25 855.34 389.49 862.36 410.95 844.12 397.64 825.87 410.95 832.89 389.49 814.59 376.25 837.18 376.29 844.12 354.8"/><polygon class="cls-1" points="657.4 354.8 650.46 376.29 627.87 376.25 646.17 389.49 639.15 410.95 657.4 397.64 675.64 410.95 668.62 389.49 686.92 376.25 664.34 376.29 657.4 354.8"/></svg>